<svg xmlns="http://www.w3.org/2000/svg" viewBox="0 0 540 411" fill="none"><circle cx="410.911" cy="1.91045" r="1.91045" fill="#4338CA"></circle><circle cx="438.93" cy="1.91045" r="1.91045" fill="#4338CA"></circle><circle cx="466.95" cy="1.91045" r="1.91045" fill="#4338CA"></circle><circle cx="494.97" cy="1.91045" r="1.91045" fill="#4338CA"></circle><circle cx="522.99" cy="1.91045" r="1.91045" fill="#4338CA"></circle><circle cx="410.91" cy="29.9303" r="1.91045" fill="#4338CA"></circle><circle cx="438.93" cy="29.9303" r="1.91045" fill="#4338CA"></circle><circle cx="466.95" cy="29.9303" r="1.91045" fill="#4338CA"></circle><circle cx="494.97" cy="29.9303" r="1.91045" fill="#4338CA"></circle><circle cx="522.99" cy="29.9303" r="1.91045" fill="#4338CA"></circle><circle cx="410.91" cy="57.9503" r="1.91045" fill="#4338CA"></circle><circle cx="438.93" cy="57.9503" r="1.91045" fill="#4338CA"></circle><circle cx="466.95" cy="57.9503" r="1.91045" fill="#4338CA"></circle><circle cx="494.97" cy="57.9503" r="1.91045" fill="#4338CA"></circle><circle cx="522.99" cy="57.9503" r="1.91045" fill="#4338CA"></circle><circle cx="410.91" cy="85.9702" r="1.91045" fill="#4338CA"></circle><circle cx="438.93" cy="85.9702" r="1.91045" fill="#4338CA"></circle><circle cx="466.95" cy="85.9702" r="1.91045" fill="#4338CA"></circle><circle cx="494.97" cy="85.9702" r="1.91045" fill="#4338CA"></circle><circle cx="522.99" cy="85.9702" r="1.91045" fill="#4338CA"></circle><circle cx="410.91" cy="113.99" r="1.91045" fill="#4338CA"></circle><circle cx="438.93" cy="113.99" r="1.91045" fill="#4338CA"></circle><circle cx="466.95" cy="113.99" r="1.91045" fill="#4338CA"></circle><circle cx="494.97" cy="113.99" r="1.91045" fill="#4338CA"></circle><circle cx="522.99" cy="113.99" r="1.91045" fill="#4338CA"></circle><circle cx="410.91" cy="142.01" r="1.91045" fill="#4338CA"></circle><circle cx="438.93" cy="142.01" r="1.91045" fill="#4338CA"></circle><circle cx="466.95" cy="142.01" r="1.91045" fill="#4338CA"></circle><circle cx="494.97" cy="142.01" r="1.91045" fill="#4338CA"></circle><circle cx="522.99" cy="142.01" r="1.91045" fill="#4338CA"></circle><circle cx="410.91" cy="170.03" r="1.91045" fill="#4338CA"></circle><circle cx="438.93" cy="170.03" r="1.91045" fill="#4338CA"></circle><circle cx="466.95" cy="170.03" r="1.91045" fill="#4338CA"></circle><circle cx="494.97" cy="170.03" r="1.91045" fill="#4338CA"></circle><circle cx="522.99" cy="170.03" r="1.91045" fill="#4338CA"></circle><circle cx="410.91" cy="198.05" r="1.91045" fill="#4338CA"></circle><circle cx="438.93" cy="198.05" r="1.91045" fill="#4338CA"></circle><circle cx="466.95" cy="198.05" r="1.91045" fill="#4338CA"></circle><circle cx="494.97" cy="198.05" r="1.91045" fill="#4338CA"></circle><circle cx="522.99" cy="198.05" r="1.91045" fill="#4338CA"></circle><circle cx="410.91" cy="226.07" r="1.91045" fill="#4338CA"></circle><circle cx="438.93" cy="226.07" r="1.91045" fill="#4338CA"></circle><circle cx="466.95" cy="226.07" r="1.91045" fill="#4338CA"></circle><circle cx="494.97" cy="226.07" r="1.91045" fill="#4338CA"></circle><circle cx="522.99" cy="226.07" r="1.91045" fill="#4338CA"></circle><circle cx="410.91" cy="254.09" r="1.91045" fill="#4338CA"></circle><circle cx="438.93" cy="254.09" r="1.91045" fill="#4338CA"></circle><circle cx="466.95" cy="254.09" r="1.91045" fill="#4338CA"></circle><circle cx="494.97" cy="254.09" r="1.91045" fill="#4338CA"></circle><circle cx="522.99" cy="254.09" r="1.91045" fill="#4338CA"></circle><circle cx="277.09" cy="296.911" r="1.91045" transform="rotate(90 277.09 296.911)" fill="#4338CA"></circle><circle cx="277.09" cy="324.93" r="1.91045" transform="rotate(90 277.09 324.93)" fill="#4338CA"></circle><circle cx="277.09" cy="352.95" r="1.91045" transform="rotate(90 277.09 352.95)" fill="#4338CA"></circle><circle cx="277.09" cy="380.97" r="1.91045" transform="rotate(90 277.09 380.97)" fill="#4338CA"></circle><circle cx="277.09" cy="408.99" r="1.91045" transform="rotate(90 277.09 408.99)" fill="#4338CA"></circle><circle cx="249.07" cy="296.91" r="1.91045" transform="rotate(90 249.07 296.91)" fill="#4338CA"></circle><circle cx="249.07" cy="324.93" r="1.91045" transform="rotate(90 249.07 324.93)" fill="#4338CA"></circle><circle cx="249.07" cy="352.95" r="1.91045" transform="rotate(90 249.07 352.95)" fill="#4338CA"></circle><circle cx="249.07" cy="380.97" r="1.91045" transform="rotate(90 249.07 380.97)" fill="#4338CA"></circle><circle cx="249.07" cy="408.99" r="1.91045" transform="rotate(90 249.07 408.99)" fill="#4338CA"></circle><circle cx="221.05" cy="296.91" r="1.91045" transform="rotate(90 221.05 296.91)" fill="#4338CA"></circle><circle cx="221.05" cy="324.93" r="1.91045" transform="rotate(90 221.05 324.93)" fill="#4338CA"></circle><circle cx="221.05" cy="352.95" r="1.91045" transform="rotate(90 221.05 352.95)" fill="#4338CA"></circle><circle cx="221.05" cy="380.97" r="1.91045" transform="rotate(90 221.05 380.97)" fill="#4338CA"></circle><circle cx="221.05" cy="408.99" r="1.91045" transform="rotate(90 221.05 408.99)" fill="#4338CA"></circle><circle cx="193.03" cy="296.91" r="1.91045" transform="rotate(90 193.03 296.91)" fill="#4338CA"></circle><circle cx="193.03" cy="324.93" r="1.91045" transform="rotate(90 193.03 324.93)" fill="#4338CA"></circle><circle cx="193.03" cy="352.95" r="1.91045" transform="rotate(90 193.03 352.95)" fill="#4338CA"></circle><circle cx="193.03" cy="380.97" r="1.91045" transform="rotate(90 193.03 380.97)" fill="#4338CA"></circle><circle cx="193.03" cy="408.99" r="1.91045" transform="rotate(90 193.03 408.99)" fill="#4338CA"></circle><circle cx="165.01" cy="296.91" r="1.91045" transform="rotate(90 165.01 296.91)" fill="#4338CA"></circle><circle cx="165.01" cy="324.93" r="1.91045" transform="rotate(90 165.01 324.93)" fill="#4338CA"></circle><circle cx="165.01" cy="352.95" r="1.91045" transform="rotate(90 165.01 352.95)" fill="#4338CA"></circle><circle cx="165.01" cy="380.97" r="1.91045" transform="rotate(90 165.01 380.97)" fill="#4338CA"></circle><circle cx="165.01" cy="408.99" r="1.91045" transform="rotate(90 165.01 408.99)" fill="#4338CA"></circle><circle cx="136.99" cy="296.91" r="1.91045" transform="rotate(90 136.99 296.91)" fill="#4338CA"></circle><circle cx="136.99" cy="324.93" r="1.91045" transform="rotate(90 136.99 324.93)" fill="#4338CA"></circle><circle cx="136.99" cy="352.95" r="1.91045" transform="rotate(90 136.99 352.95)" fill="#4338CA"></circle><circle cx="136.99" cy="380.97" r="1.91045" transform="rotate(90 136.99 380.97)" fill="#4338CA"></circle><circle cx="136.99" cy="408.99" r="1.91045" transform="rotate(90 136.99 408.99)" fill="#4338CA"></circle><circle cx="108.97" cy="296.91" r="1.91045" transform="rotate(90 108.97 296.91)" fill="#4338CA"></circle><circle cx="108.97" cy="324.93" r="1.91045" transform="rotate(90 108.97 324.93)" fill="#4338CA"></circle><circle cx="108.97" cy="352.95" r="1.91045" transform="rotate(90 108.97 352.95)" fill="#4338CA"></circle><circle cx="108.97" cy="380.97" r="1.91045" transform="rotate(90 108.97 380.97)" fill="#4338CA"></circle><circle cx="108.97" cy="408.99" r="1.91045" transform="rotate(90 108.97 408.99)" fill="#4338CA"></circle><circle cx="80.9502" cy="296.91" r="1.91045" transform="rotate(90 80.9502 296.91)" fill="#4338CA"></circle><circle cx="80.9502" cy="324.93" r="1.91045" transform="rotate(90 80.9502 324.93)" fill="#4338CA"></circle><circle cx="80.9502" cy="352.95" r="1.91045" transform="rotate(90 80.9502 352.95)" fill="#4338CA"></circle><circle cx="80.9502" cy="380.97" r="1.91045" transform="rotate(90 80.9502 380.97)" fill="#4338CA"></circle><circle cx="80.9502" cy="408.99" r="1.91045" transform="rotate(90 80.9502 408.99)" fill="#4338CA"></circle><circle cx="52.9303" cy="296.91" r="1.91045" transform="rotate(90 52.9303 296.91)" fill="#4338CA"></circle><circle cx="52.9303" cy="324.93" r="1.91045" transform="rotate(90 52.9303 324.93)" fill="#4338CA"></circle><circle cx="52.9303" cy="352.95" r="1.91045" transform="rotate(90 52.9303 352.95)" fill="#4338CA"></circle><circle cx="52.9303" cy="380.97" r="1.91045" transform="rotate(90 52.9303 380.97)" fill="#4338CA"></circle><circle cx="52.9303" cy="408.99" r="1.91045" transform="rotate(90 52.9303 408.99)" fill="#4338CA"></circle><circle cx="24.9104" cy="296.91" r="1.91045" transform="rotate(90 24.9104 296.91)" fill="#4338CA"></circle><circle cx="24.9104" cy="324.93" r="1.91045" transform="rotate(90 24.9104 324.93)" fill="#4338CA"></circle><circle cx="24.9104" cy="352.95" r="1.91045" transform="rotate(90 24.9104 352.95)" fill="#4338CA"></circle><circle cx="24.9104" cy="380.97" r="1.91045" transform="rotate(90 24.9104 380.97)" fill="#4338CA"></circle><circle cx="24.9104" cy="408.99" r="1.91045" transform="rotate(90 24.9104 408.99)" fill="#4338CA"></circle><path d="M46.5259 362.808C46.5259 362.808 -15.355 296.377 36.0626 224.455C81.6754 160.645 134.858 165.006 173.876 190.902C190.494 201.931 238.407 192.264 279.186 127.329C334.798 38.791 527.57 92.486 492.423 228.722C475.413 294.649 544.185 297.046 509.144 362.948L46.5259 362.808Z" fill="#FAFAFF"></path><path d="M291.168 22.0028H129.782C124.701 22.0028 120.583 26.1214 120.583 31.2019V353.934C120.583 359.014 124.701 363.133 129.782 363.133H291.168C296.248 363.133 300.367 359.014 300.367 353.934V31.2019C300.367 26.1214 296.248 22.0028 291.168 22.0028Z" fill="#78ACEA"></path><path d="M309.87 31.2019V353.934C309.862 356.371 308.889 358.706 307.165 360.429C305.441 362.152 303.105 363.123 300.668 363.13H139.285C136.848 363.123 134.512 362.152 132.789 360.429C131.065 358.706 130.094 356.371 130.086 353.934V31.2019C130.092 28.7637 131.063 26.4271 132.787 24.7028C134.511 22.9785 136.847 22.0068 139.285 22H300.668C303.106 22.0068 305.443 22.9784 307.167 24.7026C308.892 26.4269 309.863 28.7635 309.87 31.2019Z" fill="#AFCDFB"></path><path opacity="0.4" d="M246.324 34.9128H199.589C199.108 34.9113 198.647 34.7194 198.306 34.3789C197.966 34.0385 197.774 33.5772 197.772 33.0957C197.773 32.6138 197.965 32.1517 198.305 31.8107C198.646 31.4696 199.108 31.2773 199.589 31.2758H246.324C246.806 31.2773 247.268 31.4695 247.609 31.8105C247.95 32.1515 248.142 32.6135 248.144 33.0957V33.0957C248.142 33.5774 247.949 34.0387 247.608 34.3791C247.267 34.7195 246.806 34.9113 246.324 34.9128Z" fill="#5E92DD"></path><path opacity="0.4" d="M191.289 34.9128C190.808 34.9113 190.346 34.7194 190.006 34.3789C189.665 34.0385 189.473 33.5772 189.472 33.0957C189.473 32.6138 189.664 32.1517 190.005 31.8107C190.345 31.4696 190.807 31.2773 191.289 31.2758V31.2758C191.771 31.2773 192.233 31.4695 192.574 31.8105C192.915 32.1515 193.107 32.6135 193.109 33.0957V33.0957C193.107 33.5774 192.914 34.0387 192.573 34.3791C192.232 34.7195 191.771 34.9113 191.289 34.9128Z" fill="#5E92DD"></path><path d="M233.932 344.283C233.932 346.602 233.244 348.869 231.956 350.797C230.667 352.726 228.836 354.229 226.693 355.117C224.55 356.004 222.193 356.237 219.918 355.784C217.643 355.332 215.554 354.216 213.913 352.576C212.273 350.936 211.156 348.847 210.703 346.572C210.25 344.297 210.482 341.94 211.37 339.797C212.257 337.654 213.759 335.822 215.687 334.533C217.616 333.244 219.883 332.556 222.202 332.555C223.744 332.55 225.271 332.849 226.697 333.437C228.122 334.024 229.417 334.887 230.508 335.978C231.598 337.068 232.462 338.363 233.049 339.788C233.637 341.213 233.937 342.741 233.932 344.283V344.283Z" fill="#95C0F4"></path><path d="M300.276 43.0172H140.849V326.792H300.276V43.0172Z" fill="#95C0F4"></path><path d="M230.531 352.538C229.369 353.712 227.973 354.627 226.433 355.224C224.893 355.821 223.244 356.086 221.595 356.002C219.945 355.917 218.332 355.485 216.862 354.734C215.391 353.983 214.095 352.93 213.059 351.643C212.024 350.357 211.271 348.866 210.852 347.269C210.432 345.671 210.355 344.003 210.625 342.374C210.895 340.744 211.506 339.19 212.418 337.814C213.33 336.437 214.522 335.268 215.918 334.384C217.066 339.375 220.476 347.726 230.531 352.538Z" fill="#8CBAF1"></path><path opacity="0.9" d="M297.984 76.9413H149.616C148.356 76.9413 147.324 78.2778 147.324 79.9129V174.77C147.324 176.402 148.356 177.738 149.616 177.738H297.984C299.246 177.738 300.276 176.402 300.276 174.77V79.9129C300.276 78.2778 299.246 76.9413 297.984 76.9413Z" fill="#78ACEA"></path><path opacity="0.9" d="M242.63 192.181H126.973C125.989 192.181 125.184 193.517 125.184 195.153V290.012C125.184 291.642 125.989 292.978 126.973 292.978H242.645C243.629 292.978 244.433 291.642 244.433 290.012V195.153C244.413 193.517 243.614 192.181 242.63 192.181Z" fill="#78ACEA"></path><path d="M354.387 71.3678V166.227C354.384 167.014 354.07 167.768 353.513 168.323C352.956 168.879 352.202 169.192 351.415 169.193H159.316C158.53 169.191 157.777 168.878 157.221 168.322C156.665 167.766 156.352 167.013 156.35 166.227V71.3678C156.351 70.5811 156.664 69.827 157.22 69.2702C157.775 68.7134 158.529 68.3992 159.316 68.3962H351.415C352.203 68.3985 352.957 68.7123 353.514 69.269C354.071 69.8258 354.384 70.5803 354.387 71.3678V71.3678Z" fill="white"></path><path d="M354.384 71.3678V166.225C354.384 167.857 352.831 169.193 350.932 169.193H255.367V68.3962H350.932C352.831 68.3962 354.384 69.7327 354.384 71.3678Z" fill="#4338CA"></path><path d="M302.278 105.218H268.467C267.896 105.216 267.35 104.988 266.947 104.584C266.543 104.18 266.316 103.633 266.315 103.063C266.317 102.492 266.544 101.946 266.948 101.543C267.351 101.14 267.897 100.912 268.467 100.91H302.278C302.848 100.912 303.394 101.14 303.797 101.543C304.2 101.946 304.428 102.492 304.43 103.063C304.429 103.633 304.202 104.18 303.798 104.584C303.395 104.988 302.848 105.216 302.278 105.218Z" fill="white"></path><path d="M293.923 107.371H268.208C267.162 107.371 266.315 108.218 266.315 109.264V109.782C266.315 110.828 267.162 111.676 268.208 111.676H293.923C294.969 111.676 295.817 110.828 295.817 109.782V109.264C295.817 108.218 294.969 107.371 293.923 107.371Z" fill="white"></path><path d="M268.914 81.0929C269.28 80.5978 269.758 80.1955 270.308 79.9182C270.858 79.641 271.465 79.4966 272.081 79.4966C272.698 79.4966 273.305 79.641 273.855 79.9182C274.405 80.1955 274.883 80.5978 275.249 81.0929C276.06 82.1451 276.458 83.4588 276.458 85.0313C276.458 86.6039 276.06 87.9176 275.249 88.9697C274.881 89.4628 274.403 89.8632 273.853 90.139C273.303 90.4148 272.697 90.5584 272.081 90.5584C271.466 90.5584 270.86 90.4148 270.31 90.139C269.76 89.8632 269.282 89.4628 268.914 88.9697C268.103 87.9176 267.708 86.6039 267.708 85.0313C267.708 83.4588 268.103 82.1451 268.914 81.0929ZM274.425 81.8266C274.174 81.4338 273.829 81.1104 273.421 80.8864C273.013 80.6623 272.554 80.5449 272.089 80.5449C271.623 80.5449 271.165 80.6623 270.756 80.8864C270.348 81.1104 270.003 81.4338 269.753 81.8266C269.117 82.7661 268.796 83.8834 268.837 85.0171C268.797 86.154 269.112 87.2752 269.738 88.2247C269.993 88.6153 270.342 88.9357 270.753 89.1568C271.164 89.3778 271.623 89.4924 272.09 89.4901C272.554 89.4937 273.012 89.3795 273.42 89.1582C273.829 88.937 274.174 88.6158 274.425 88.2247C275.023 87.265 275.34 86.1567 275.34 85.0257C275.34 83.8946 275.023 82.7863 274.425 81.8266V81.8266Z" fill="#FCECDB"></path><path d="M285.173 80.8171C285.893 81.6872 286.26 82.9242 286.26 84.4967C286.319 87.8265 284.519 90.5763 281.616 90.545C280.813 90.5692 280.023 90.3393 279.358 89.8881V88.8047C279.992 89.2514 280.749 89.4908 281.525 89.49C284.059 89.49 285.114 87.1839 285.159 84.9261C284.59 85.8872 283.479 86.5128 282.031 86.5128C281.12 86.5304 280.238 86.1905 279.574 85.5659C279.248 85.2473 278.991 84.8645 278.82 84.4416C278.65 84.0187 278.568 83.5649 278.582 83.109C278.567 82.6282 278.652 82.1495 278.83 81.7028C279.009 81.2561 279.278 80.851 279.62 80.5128C279.962 80.1764 280.368 79.9123 280.814 79.7364C281.26 79.5605 281.737 79.4764 282.216 79.4891C282.778 79.4647 283.339 79.572 283.852 79.8026C284.366 80.0332 284.818 80.3806 285.173 80.8171V80.8171ZM280.427 81.2749C280.184 81.5128 279.994 81.7987 279.867 82.1146C279.741 82.4304 279.682 82.7691 279.694 83.109C279.679 83.4387 279.739 83.7675 279.869 84.0711C279.998 84.3747 280.194 84.6455 280.442 84.8635C280.957 85.3104 281.623 85.5452 282.304 85.5204C282.934 85.5186 283.545 85.3097 284.045 84.9261C284.553 84.5595 284.933 84.0407 285.128 83.4445C284.946 81.6104 283.939 80.5441 282.284 80.5441C281.942 80.5353 281.601 80.5955 281.282 80.721C280.963 80.8466 280.672 81.0349 280.427 81.2749V81.2749Z" fill="#FCECDB"></path><path d="M288.517 83.4133C288.63 83.3026 288.772 83.2275 288.927 83.1975C289.081 83.1676 289.242 83.184 289.387 83.2448C289.532 83.3056 289.657 83.408 289.744 83.5392C289.831 83.6704 289.878 83.8244 289.878 83.982C289.878 84.1396 289.831 84.2937 289.744 84.4249C289.657 84.556 289.532 84.6584 289.387 84.7192C289.242 84.78 289.081 84.7965 288.927 84.7665C288.772 84.7365 288.63 84.6614 288.517 84.5507C288.369 84.3984 288.287 84.1944 288.287 83.982C288.287 83.7696 288.369 83.5656 288.517 83.4133V83.4133ZM288.517 89.1005C288.63 88.9898 288.772 88.9147 288.927 88.8848C289.081 88.8548 289.242 88.8712 289.387 88.932C289.532 88.9928 289.657 89.0952 289.744 89.2264C289.831 89.3576 289.878 89.5116 289.878 89.6692C289.878 89.8268 289.831 89.9809 289.744 90.1121C289.657 90.2432 289.532 90.3457 289.387 90.4064C289.242 90.4672 289.081 90.4837 288.927 90.4537C288.772 90.4237 288.63 90.3486 288.517 90.2379C288.366 90.0861 288.282 89.8806 288.282 89.6664C288.282 89.4522 288.366 89.2467 288.517 89.0948V89.1005Z" fill="#FCECDB"></path><path d="M293.801 90.3603V80.8939L291.404 82.2674V81.184L293.923 79.674H294.916V90.3603H293.801Z" fill="#FCECDB"></path><path d="M298.808 81.0929C299.175 80.5978 299.653 80.1954 300.203 79.9182C300.754 79.641 301.361 79.4966 301.978 79.4966C302.594 79.4966 303.201 79.641 303.752 79.9182C304.302 80.1954 304.78 80.5978 305.147 81.0929C305.954 82.1451 306.352 83.4588 306.352 85.0313C306.352 86.6038 305.954 87.9176 305.147 88.9697C304.779 89.4628 304.3 89.8632 303.75 90.1389C303.2 90.4147 302.593 90.5584 301.978 90.5584C301.362 90.5584 300.755 90.4147 300.205 90.1389C299.655 89.8632 299.177 89.4628 298.808 88.9697C298.001 87.9176 297.603 86.6038 297.603 85.0313C297.603 83.4588 298.001 82.1451 298.808 81.0929ZM304.322 81.8266C304.072 81.4338 303.727 81.1104 303.318 80.8864C302.91 80.6623 302.452 80.5449 301.986 80.5449C301.52 80.5449 301.062 80.6623 300.654 80.8864C300.246 81.1104 299.9 81.4338 299.65 81.8266C299.014 82.7661 298.694 83.8834 298.734 85.0171C298.695 86.1535 299.009 87.2743 299.633 88.2247C299.888 88.6151 300.237 88.9354 300.648 89.1564C301.059 89.3774 301.518 89.4921 301.985 89.4901C302.449 89.4937 302.908 89.3795 303.316 89.1582C303.725 88.9369 304.071 88.6158 304.322 88.2247C304.921 87.265 305.238 86.1567 305.238 85.0256C305.238 83.8946 304.921 82.7863 304.322 81.8266V81.8266Z" fill="#FCECDB"></path><path d="M312.944 90.3603V79.674H317.434C319.572 79.674 320.846 80.8626 320.846 82.6342C320.846 84.4513 319.564 85.6427 317.434 85.6427H314.076V90.3603H312.944ZM314.081 84.619H317.363C318.876 84.619 319.746 83.9025 319.746 82.6655C319.746 81.4285 318.876 80.6949 317.363 80.6949H314.081V84.619Z" fill="#FCECDB"></path><path d="M323.087 90.3603V79.674H324.202L328.066 84.8494L331.928 79.674H333.028V90.3603H331.914V81.383L328.416 86.0551H327.731L324.205 81.383V90.3603H323.087Z" fill="#FCECDB"></path><path d="M213.358 169.193H159.33C158.544 169.191 157.791 168.878 157.235 168.322C156.679 167.767 156.366 167.013 156.364 166.228V101.766C171.082 119.183 199.928 153.306 213.358 169.193Z" fill="white"></path><path d="M205.493 80.8825C200.299 80.8833 195.319 82.9469 191.647 86.6195C187.975 90.2921 185.912 95.2729 185.912 100.466C185.912 111.272 205.493 135.323 205.493 135.323C205.493 135.323 225.077 111.281 225.077 100.466C225.077 95.2724 223.013 90.2912 219.341 86.6185C215.668 82.9458 210.687 80.8825 205.493 80.8825ZM205.493 109.418C203.682 109.418 201.912 108.881 200.407 107.875C198.902 106.869 197.728 105.44 197.036 103.767C196.343 102.094 196.162 100.253 196.515 98.4777C196.869 96.702 197.741 95.071 199.021 93.791C200.302 92.5109 201.933 91.6393 203.709 91.2865C205.485 90.9336 207.325 91.1153 208.998 91.8085C210.67 92.5018 212.1 93.6754 213.105 95.1811C214.111 96.6868 214.647 98.4568 214.646 100.267C214.646 102.695 213.681 105.022 211.964 106.738C210.248 108.454 207.92 109.418 205.493 109.418V109.418Z" fill="#4338CA"></path><path d="M203.846 151.574H170.036C169.465 151.573 168.919 151.346 168.515 150.942C168.112 150.539 167.885 149.992 167.883 149.422V149.422C167.886 148.852 168.113 148.305 168.516 147.902C168.92 147.499 169.466 147.272 170.036 147.269H203.846C204.417 147.272 204.963 147.499 205.366 147.902C205.769 148.305 205.997 148.852 205.999 149.422V149.422C205.997 149.992 205.77 150.539 205.367 150.942C204.963 151.346 204.417 151.573 203.846 151.574V151.574Z" fill="#4338CA"></path><path d="M195.492 153.73H169.777C168.731 153.73 167.883 154.578 167.883 155.624V156.141C167.883 157.187 168.731 158.035 169.777 158.035H195.492C196.538 158.035 197.386 157.187 197.386 156.141V155.624C197.386 154.578 196.538 153.73 195.492 153.73Z" fill="#4338CA"></path><path d="M259.53 187.87V282.727C259.528 283.514 259.214 284.267 258.658 284.824C258.102 285.38 257.348 285.693 256.561 285.696H64.4645C63.6773 285.694 62.9227 285.381 62.3659 284.825C61.809 284.268 61.4951 283.514 61.4929 282.727V187.87C61.4959 187.083 61.8101 186.33 62.3669 185.774C62.9237 185.218 63.6778 184.906 64.4645 184.904H256.561C257.348 184.906 258.101 185.219 258.658 185.774C259.214 186.33 259.528 187.084 259.53 187.87V187.87Z" fill="white"></path><path d="M259.53 187.87V282.727C259.528 283.514 259.214 284.268 258.658 284.825C258.102 285.381 257.348 285.696 256.561 285.699H171.122V184.901H256.561C257.348 184.904 258.102 185.217 258.658 185.773C259.214 186.33 259.528 187.083 259.53 187.87V187.87Z" fill="#3328B8"></path><path d="M214.678 255.844C213.841 255.844 213.02 255.625 212.294 255.209C211.569 254.793 210.965 254.194 210.543 253.472L197.917 231.886C197.585 231.343 197.364 230.738 197.268 230.108C197.172 229.478 197.203 228.835 197.358 228.217C197.514 227.599 197.791 227.018 198.174 226.508C198.556 225.999 199.037 225.571 199.587 225.249C200.137 224.927 200.746 224.719 201.378 224.635C202.01 224.552 202.652 224.596 203.267 224.764C203.882 224.932 204.457 225.22 204.959 225.613C205.461 226.006 205.879 226.495 206.189 227.052L214.288 240.898L229.541 209.519C229.805 208.934 230.183 208.409 230.653 207.974C231.123 207.538 231.675 207.202 232.278 206.983C232.88 206.765 233.52 206.67 234.16 206.704C234.8 206.737 235.426 206.899 236.003 207.179C236.579 207.459 237.093 207.852 237.515 208.334C237.937 208.816 238.258 209.378 238.459 209.986C238.66 210.595 238.736 211.237 238.685 211.876C238.633 212.514 238.454 213.136 238.157 213.704L218.986 253.145C218.606 253.926 218.022 254.589 217.296 255.064C216.569 255.538 215.727 255.807 214.86 255.841L214.678 255.844Z" fill="white"></path><path d="M214.678 266.948C208.796 266.948 203.046 265.205 198.155 261.937C193.264 258.67 189.452 254.026 187.201 248.592C184.95 243.158 184.36 237.178 185.507 231.409C186.655 225.641 189.487 220.341 193.645 216.182C197.804 212.023 203.103 209.19 208.872 208.043C214.641 206.895 220.62 207.484 226.054 209.734C231.489 211.985 236.133 215.797 239.401 220.687C242.669 225.578 244.413 231.328 244.413 237.209C244.404 245.093 241.268 252.652 235.694 258.227C230.119 263.802 222.561 266.938 214.678 266.948V266.948ZM214.678 210.954C209.485 210.954 204.409 212.494 200.091 215.379C195.773 218.264 192.408 222.365 190.421 227.162C188.434 231.96 187.914 237.239 188.927 242.331C189.94 247.424 192.441 252.103 196.112 255.774C199.784 259.446 204.463 261.947 209.555 262.96C214.648 263.973 219.927 263.453 224.725 261.466C229.522 259.479 233.623 256.114 236.508 251.796C239.393 247.478 240.933 242.402 240.933 237.209C240.925 230.248 238.156 223.575 233.234 218.653C228.312 213.731 221.639 210.962 214.678 210.954V210.954Z" fill="white"></path><path d="M117.759 285.696H64.4645C63.6773 285.694 62.9227 285.381 62.3659 284.825C61.809 284.268 61.4951 283.514 61.4929 282.727V209.325L117.759 285.696Z" fill="white"></path><path d="M87.2672 201.363C85.1604 201.363 83.1009 201.988 81.3492 203.158C79.5974 204.329 78.2321 205.992 77.4259 207.939C76.6197 209.885 76.4087 212.027 76.8197 214.093C77.2307 216.16 78.2453 218.058 79.735 219.547C81.2247 221.037 83.1227 222.052 85.189 222.463C87.2554 222.874 89.3972 222.663 91.3436 221.856C93.29 221.05 94.9536 219.685 96.1241 217.933C97.2946 216.181 97.9193 214.122 97.9193 212.015C97.9193 209.19 96.7971 206.481 94.7994 204.483C92.8017 202.485 90.0923 201.363 87.2672 201.363V201.363ZM94.6605 212.354H87.2672C87.1774 212.354 87.0914 212.318 87.0279 212.254C86.9644 212.191 86.9288 212.105 86.9288 212.015V204.081C86.9245 204.034 86.93 203.987 86.9452 203.942C86.9603 203.897 86.9846 203.855 87.0166 203.82C87.0485 203.785 87.0875 203.757 87.1309 203.738C87.1743 203.719 87.2212 203.709 87.2686 203.709C87.316 203.709 87.3629 203.719 87.4063 203.738C87.4497 203.757 87.4887 203.785 87.5206 203.82C87.5526 203.855 87.5769 203.897 87.592 203.942C87.6072 203.987 87.6127 204.034 87.6084 204.081V211.674H94.6463C94.7311 211.682 94.8099 211.721 94.8673 211.784C94.9246 211.847 94.9564 211.929 94.9564 212.014C94.9564 212.099 94.9246 212.181 94.8673 212.244C94.8099 212.307 94.7311 212.346 94.6463 212.354H94.6605Z" fill="#3328B8"></path><path d="M142.075 208.043H108.267C107.697 208.041 107.15 207.814 106.746 207.411C106.342 207.007 106.114 206.461 106.112 205.89V205.89C106.113 205.319 106.341 204.771 106.745 204.368C107.149 203.964 107.696 203.736 108.267 203.735H142.075C142.646 203.736 143.193 203.964 143.596 204.368C144 204.772 144.227 205.319 144.228 205.89V205.89C144.226 206.461 143.999 207.007 143.595 207.411C143.192 207.814 142.645 208.041 142.075 208.043V208.043Z" fill="#3328B8"></path><path d="M133.72 210.195H108.006C106.96 210.195 106.112 211.043 106.112 212.089V212.607C106.112 213.653 106.96 214.5 108.006 214.5H133.72C134.766 214.5 135.614 213.653 135.614 212.607V212.089C135.614 211.043 134.766 210.195 133.72 210.195Z" fill="#3328B8"></path><path d="M86.2039 242.595C83.6608 242.595 81.2219 243.606 79.4237 245.404C77.6255 247.202 76.6152 249.641 76.6152 252.184C76.6152 257.482 86.2039 269.246 86.2039 269.246C86.2039 269.246 95.7925 257.473 95.7925 252.184C95.7925 249.641 94.7823 247.202 92.984 245.404C91.1858 243.606 88.7469 242.595 86.2039 242.595ZM86.2039 256.569C85.3175 256.569 84.4511 256.306 83.7141 255.814C82.9771 255.321 82.4027 254.621 82.0635 253.802C81.7243 252.983 81.6355 252.082 81.8085 251.213C81.9814 250.344 82.4082 249.545 83.0349 248.918C83.6617 248.292 84.4602 247.865 85.3296 247.692C86.1989 247.519 87.1 247.608 87.9189 247.947C88.7378 248.286 89.4377 248.861 89.9301 249.597C90.4226 250.334 90.6854 251.201 90.6854 252.087C90.6824 253.274 90.2089 254.411 89.3688 255.249C88.5286 256.087 87.3905 256.557 86.2039 256.557V256.569Z" fill="#3328B8"></path><path d="M139.504 249.576H105.694C105.123 249.574 104.576 249.346 104.173 248.942C103.77 248.539 103.543 247.992 103.541 247.421C103.543 246.851 103.771 246.304 104.174 245.901C104.577 245.498 105.124 245.271 105.694 245.268H139.504C140.074 245.271 140.621 245.498 141.024 245.901C141.427 246.304 141.655 246.851 141.657 247.421V247.421C141.655 247.992 141.428 248.539 141.025 248.942C140.622 249.346 140.075 249.574 139.504 249.576V249.576Z" fill="#3328B8"></path><path d="M131.15 251.729H105.435C104.389 251.729 103.541 252.577 103.541 253.623V254.14C103.541 255.186 104.389 256.034 105.435 256.034H131.15C132.196 256.034 133.044 255.186 133.044 254.14V253.623C133.044 252.577 132.196 251.729 131.15 251.729Z" fill="#3328B8"></path><path d="M539.387 362.948H0.61256C0.274219 362.948 -6.10352e-05 363.329 -6.10352e-05 363.799V364.087C-6.10352e-05 364.557 0.274219 364.938 0.61256 364.938H539.387C539.726 364.938 540 364.557 540 364.087V363.799C540 363.329 539.726 362.948 539.387 362.948Z" fill="#FAFAFF"></path><path d="M335.471 111.676C335.471 111.676 332.323 101.516 330.534 100.421C328.746 99.3261 321.287 95.6522 320.843 96.6474C320.4 97.6427 324.87 102.465 325.862 104.078C326.855 105.69 327.352 107.277 326.659 106.58C325.965 105.883 322.189 103.56 321.79 104.078C321.392 104.595 323.679 106.58 324.771 108.17C325.862 109.759 327.045 112.435 330.93 113.041C334.814 113.646 335.471 111.676 335.471 111.676Z" fill="#FFB27D"></path><path d="M450.29 197.24C450.29 197.24 449.346 206.419 448.299 208.154C447.253 209.888 442.851 215.439 440.974 216.528C439.098 217.617 442.112 209.217 441.736 207.582C441.361 205.947 440.192 210.565 439.362 210.673C438.532 210.781 438.748 206.626 438.719 205.114C438.691 203.601 442.749 199.87 444.179 196.648C445.609 193.427 450.29 197.24 450.29 197.24Z" fill="#FFB27D"></path><path d="M421.507 103.057C421.507 103.057 413.872 140.51 371.869 152.757C358.757 156.579 328.97 113.413 328.97 113.413C328.97 113.413 330.02 109.432 336.58 110.348C336.58 110.348 365.585 129.548 369.233 131.635C372.475 133.486 393.782 107.843 403.495 103.705C413.209 99.5678 421.507 103.057 421.507 103.057Z" fill="#3328B8"></path><path d="M471.651 338.556C471.651 338.556 476.863 343.313 475.845 346.691C474.827 350.069 470.127 352.321 469.49 356.45C468.853 360.579 466.314 362.834 464.027 362.834H453.134C453.134 362.834 451.45 359.928 455.516 359.052C459.583 358.176 461.118 353.322 460.862 348.815C460.607 344.308 461.244 338.294 461.244 338.294L469.885 336.303L471.651 338.556Z" fill="#233862"></path><path d="M407.724 350.854C407.724 350.854 408.66 361.677 406.373 362.797L377.084 362.738C377.084 362.738 377.084 359.359 381.788 358.609C386.491 357.858 394.752 355.105 396.148 348.972C397.544 342.838 407.724 350.854 407.724 350.854Z" fill="#233862"></path><path d="M383.008 197.985C383.008 197.985 384.552 216.954 386.366 239.757C388.834 270.733 391.8 308.78 392.093 315.989C392.602 328.5 394.638 348.528 394.638 348.528C394.638 348.528 399.472 353.282 409.126 351.278C409.126 351.278 417.734 322.697 420.193 292.458C420.23 291.963 420.27 291.462 420.307 290.965C422.596 260.18 426.154 195.354 426.154 195.354L383.008 197.985Z" fill="#233862"></path><path d="M383.008 197.985C383.008 197.985 384.552 216.954 386.366 239.757L420.205 292.458C420.242 291.963 420.282 291.462 420.319 290.965C422.608 260.18 426.165 195.354 426.165 195.354L383.008 197.985Z" fill="#132B5B"></path><path d="M390.06 200.226C390.06 200.226 417.893 268.927 436.194 301.213C454.496 333.5 460.214 342.508 460.214 342.508C460.214 342.508 470.698 338.379 471.651 335.564C471.651 335.564 464.653 273.235 452.397 258.039C445.473 249.454 437.326 223.688 436.956 214.68C436.587 205.671 434.477 187.836 434.477 187.836L390.06 200.226Z" fill="#233862"></path><path d="M426.688 94.3612C426.688 94.3612 407.855 103.461 396.998 100.077C399.064 97.679 401.556 95.6851 404.349 94.1962C403.973 92.018 403.681 90.127 403.513 88.509C403.253 86.5863 403.1 84.6506 403.055 82.7109L410.32 76.9981L417.21 71.527C416.659 86.9195 426.688 94.3612 426.688 94.3612Z" fill="#FFB27D"></path><path d="M436.604 191.365C436.646 192.519 434.184 193.833 433.095 194.325C425.039 197.863 417.52 200.328 409.004 201.15C398.94 202.179 387.04 199.918 382.945 200.012C382.523 200.007 382.118 199.846 381.808 199.56C381.523 199.353 381.307 187.225 381.523 171.977C381.523 171.366 381.523 170.749 381.566 170.132V169.924C381.648 163.953 381.85 157.714 382.149 151.464C382.735 137.732 383.824 124.492 385.658 117.173C387.87 108.539 392.883 102.824 397.436 98.6692L401.19 95.382C404.949 96.1213 408.916 95.9166 412.882 93.9829C417.227 91.89 421.902 89.6265 422.653 90.2009C428.34 94.3526 432.173 103.685 434.221 115.611C434.221 115.671 434.244 115.728 434.252 115.788C435.447 123.205 436.009 130.711 435.933 138.224C435.933 141.187 435.85 144.227 435.682 147.227C434.846 160.825 435.398 172.93 435.967 181.316C436.075 182.973 436.186 184.486 436.28 185.837C436.436 188.2 436.561 190.051 436.604 191.365Z" fill="#4338CA"></path><path d="M435.955 181.296C404.741 145.256 424.106 119.061 424.106 119.061L434.255 115.771C435.449 123.188 436.012 130.694 435.935 138.207C435.935 141.17 435.853 144.209 435.685 147.209C434.849 160.805 435.409 172.91 435.955 181.296Z" fill="#3328B8"></path><path d="M417.327 77.4218C417.327 77.4218 412.567 86.0976 403.504 88.5119C403.245 86.5891 403.092 84.6534 403.046 82.7138L410.312 77.0009L417.327 77.4218Z" fill="#ED985F"></path><path d="M399.733 82.4749C399.733 82.4749 417.696 85.4152 419.383 74.3707C421.069 63.3261 424.524 56.2683 413.127 53.9223C401.73 51.5764 398.849 55.4635 397.376 59.0152C395.903 62.5669 395.104 81.4256 399.733 82.4749Z" fill="#FFB27D"></path><path d="M425.915 52.6C426.077 52.4151 426.452 52.2644 427.291 52.2189C426.813 51.9482 426.276 51.797 425.727 51.7782C425.551 50.6123 424.931 48.5535 422.929 48.0531C423.255 48.2443 423.533 48.5064 423.744 48.82C423.955 49.1335 424.092 49.4905 424.146 49.8644C421.825 47.4815 416.852 45.7469 403.086 46.8332C384.941 48.255 390.921 59.8824 393.27 61.2673C395.619 62.6521 401.531 58.8559 405.907 59.2028C410.283 59.5497 411.116 65.8739 412.601 66.7412C414.085 67.6085 413.502 66.0758 415.513 65.1687C417.523 64.2616 417.711 67.5886 417.131 69.7526C416.551 71.9166 419.312 74.7715 419.312 74.7715L422.101 71.7687C424.891 68.763 427.518 56.0407 426.25 53.3279L425.915 52.6Z" fill="#2C3A64"></path><path d="M422.65 90.0901C422.65 90.0901 434.024 95.4731 439.464 103.739C447.918 116.575 457.717 163.353 457.899 167.686C458.081 172.02 450.748 202.6 450.748 202.6C450.748 202.6 443.309 202.108 441.392 198.355C441.392 198.355 442.877 166.933 441.935 164.914C440.994 162.895 410.94 122.763 414.31 114.201C417.679 105.639 422.65 90.0901 422.65 90.0901Z" fill="#4338CA"></path><path d="M328.379 144.238H283.547C279.63 144.238 276.455 147.413 276.455 151.33V153.335C276.455 157.251 279.63 160.426 283.547 160.426H328.379C332.296 160.426 335.471 157.251 335.471 153.335V151.33C335.471 147.413 332.296 144.238 328.379 144.238Z" fill="white"></path><path d="M305.866 155.865C305.71 155.865 305.557 155.825 305.422 155.748C305.287 155.67 305.174 155.559 305.096 155.425L302.741 151.395C302.679 151.294 302.638 151.181 302.621 151.064C302.603 150.947 302.609 150.827 302.638 150.712C302.667 150.597 302.718 150.489 302.79 150.394C302.861 150.299 302.95 150.22 303.053 150.16C303.155 150.1 303.268 150.061 303.386 150.045C303.504 150.03 303.623 150.038 303.738 150.069C303.852 150.1 303.959 150.154 304.053 150.226C304.146 150.299 304.224 150.39 304.282 150.494L305.795 153.076L308.639 147.221C308.69 147.115 308.762 147.021 308.849 146.943C308.937 146.865 309.04 146.806 309.15 146.767C309.261 146.729 309.379 146.713 309.496 146.72C309.613 146.727 309.728 146.757 309.833 146.809C309.939 146.86 310.033 146.931 310.111 147.019C310.188 147.107 310.248 147.209 310.287 147.32C310.325 147.431 310.341 147.549 310.334 147.666C310.327 147.783 310.297 147.897 310.245 148.003L306.668 155.362C306.597 155.508 306.488 155.632 306.352 155.72C306.217 155.809 306.059 155.859 305.897 155.865H305.866Z" fill="#4338CA"></path><path d="M305.866 157.941C304.768 157.941 303.695 157.616 302.782 157.006C301.87 156.396 301.158 155.529 300.738 154.515C300.318 153.5 300.208 152.384 300.422 151.308C300.636 150.231 301.165 149.242 301.941 148.466C302.718 147.689 303.707 147.161 304.783 146.947C305.86 146.732 306.976 146.842 307.99 147.262C309.005 147.682 309.872 148.394 310.481 149.307C311.091 150.22 311.417 151.293 311.417 152.391C311.415 153.862 310.83 155.273 309.789 156.314C308.749 157.354 307.338 157.94 305.866 157.941V157.941ZM305.866 147.494C304.897 147.494 303.95 147.781 303.144 148.32C302.338 148.858 301.71 149.624 301.339 150.519C300.969 151.415 300.872 152.4 301.061 153.35C301.25 154.301 301.717 155.174 302.403 155.859C303.088 156.544 303.961 157.01 304.912 157.199C305.863 157.388 306.848 157.29 307.743 156.919C308.638 156.548 309.403 155.919 309.941 155.113C310.479 154.307 310.766 153.36 310.766 152.391C310.765 151.092 310.248 149.846 309.33 148.928C308.411 148.01 307.165 147.494 305.866 147.494V147.494Z" fill="#4338CA"></path></svg>